<mxfile host="app.diagrams.net" agent="Mozilla/5.0 (Windows NT 10.0; Win64; x64) AppleWebKit/537.36 (KHTML, like Gecko) Chrome/132.0.0.0 Safari/537.36" version="26.0.16">
  <diagram name="Page-1" id="J8G0UUoJMor_mDY-KPfc">
    <mxGraphModel dx="794" dy="420" grid="1" gridSize="10" guides="1" tooltips="1" connect="1" arrows="1" fold="1" page="1" pageScale="1" pageWidth="850" pageHeight="1100" math="0" shadow="0">
      <root>
        <mxCell id="0" />
        <mxCell id="1" parent="0" />
        <mxCell id="6XwkBDn64M--cPHVfE2t-1" value="DEVICE" style="ellipse;whiteSpace=wrap;html=1;aspect=fixed;" parent="1" vertex="1">
          <mxGeometry x="30" y="200" width="80" height="80" as="geometry" />
        </mxCell>
        <mxCell id="6XwkBDn64M--cPHVfE2t-2" value="AEON SA" style="whiteSpace=wrap;html=1;aspect=fixed;" parent="1" vertex="1">
          <mxGeometry x="240" y="200" width="80" height="80" as="geometry" />
        </mxCell>
        <mxCell id="6XwkBDn64M--cPHVfE2t-3" value="" style="endArrow=classic;html=1;rounded=0;entryX=0;entryY=0.25;entryDx=0;entryDy=0;exitX=0.963;exitY=0.263;exitDx=0;exitDy=0;exitPerimeter=0;" parent="1" source="6XwkBDn64M--cPHVfE2t-1" target="6XwkBDn64M--cPHVfE2t-2" edge="1">
          <mxGeometry width="50" height="50" relative="1" as="geometry">
            <mxPoint x="110" y="250" as="sourcePoint" />
            <mxPoint x="160" y="200" as="targetPoint" />
            <Array as="points" />
          </mxGeometry>
        </mxCell>
        <mxCell id="6XwkBDn64M--cPHVfE2t-5" value="Socket IO" style="text;html=1;align=center;verticalAlign=middle;whiteSpace=wrap;rounded=0;" parent="1" vertex="1">
          <mxGeometry x="150" y="225" width="60" height="30" as="geometry" />
        </mxCell>
        <mxCell id="6XwkBDn64M--cPHVfE2t-6" value="Bpass&amp;nbsp;&lt;div&gt;Ticket Provider&lt;/div&gt;" style="whiteSpace=wrap;html=1;aspect=fixed;" parent="1" vertex="1">
          <mxGeometry x="450" y="200" width="80" height="80" as="geometry" />
        </mxCell>
        <mxCell id="6XwkBDn64M--cPHVfE2t-8" value="Rest API" style="text;html=1;align=center;verticalAlign=middle;whiteSpace=wrap;rounded=0;" parent="1" vertex="1">
          <mxGeometry x="360" y="225" width="60" height="30" as="geometry" />
        </mxCell>
        <mxCell id="6XwkBDn64M--cPHVfE2t-9" value="AEONSA DB" style="shape=cylinder3;whiteSpace=wrap;html=1;boundedLbl=1;backgroundOutline=1;size=15;" parent="1" vertex="1">
          <mxGeometry x="250" y="360" width="60" height="80" as="geometry" />
        </mxCell>
        <mxCell id="6XwkBDn64M--cPHVfE2t-10" value="" style="endArrow=none;html=1;rounded=0;entryX=0.5;entryY=1;entryDx=0;entryDy=0;" parent="1" source="6XwkBDn64M--cPHVfE2t-9" target="6XwkBDn64M--cPHVfE2t-2" edge="1">
          <mxGeometry width="50" height="50" relative="1" as="geometry">
            <mxPoint x="310" y="330" as="sourcePoint" />
            <mxPoint x="360" y="280" as="targetPoint" />
            <Array as="points" />
          </mxGeometry>
        </mxCell>
        <mxCell id="6XwkBDn64M--cPHVfE2t-11" value="SmartTab_bPass DB" style="shape=cylinder3;whiteSpace=wrap;html=1;boundedLbl=1;backgroundOutline=1;size=15;" parent="1" vertex="1">
          <mxGeometry x="460" y="360" width="60" height="80" as="geometry" />
        </mxCell>
        <mxCell id="6XwkBDn64M--cPHVfE2t-15" value="" style="endArrow=none;html=1;rounded=0;exitX=0.5;exitY=0;exitDx=0;exitDy=0;exitPerimeter=0;entryX=0.5;entryY=1;entryDx=0;entryDy=0;" parent="1" source="6XwkBDn64M--cPHVfE2t-11" target="6XwkBDn64M--cPHVfE2t-6" edge="1">
          <mxGeometry width="50" height="50" relative="1" as="geometry">
            <mxPoint x="450" y="330" as="sourcePoint" />
            <mxPoint x="500" y="280" as="targetPoint" />
          </mxGeometry>
        </mxCell>
        <mxCell id="6XwkBDn64M--cPHVfE2t-16" value="" style="endArrow=classic;html=1;rounded=0;entryX=0;entryY=0.25;entryDx=0;entryDy=0;exitX=1;exitY=0.25;exitDx=0;exitDy=0;" parent="1" source="6XwkBDn64M--cPHVfE2t-2" target="6XwkBDn64M--cPHVfE2t-6" edge="1">
          <mxGeometry width="50" height="50" relative="1" as="geometry">
            <mxPoint x="320" y="240" as="sourcePoint" />
            <mxPoint x="370" y="190" as="targetPoint" />
            <Array as="points">
              <mxPoint x="390" y="220" />
            </Array>
          </mxGeometry>
        </mxCell>
        <mxCell id="6XwkBDn64M--cPHVfE2t-17" value="Open Transit Sales API" style="whiteSpace=wrap;html=1;aspect=fixed;" parent="1" vertex="1">
          <mxGeometry x="680" y="170" width="150" height="150" as="geometry" />
        </mxCell>
        <mxCell id="6XwkBDn64M--cPHVfE2t-18" value="" style="endArrow=classic;html=1;rounded=0;exitX=0.25;exitY=0.75;exitDx=0;exitDy=0;exitPerimeter=0;" parent="1" edge="1">
          <mxGeometry width="50" height="50" relative="1" as="geometry">
            <mxPoint x="240" y="254.48" as="sourcePoint" />
            <mxPoint x="110" y="256" as="targetPoint" />
          </mxGeometry>
        </mxCell>
        <mxCell id="6XwkBDn64M--cPHVfE2t-19" value="" style="endArrow=classic;html=1;rounded=0;exitX=0;exitY=0.675;exitDx=0;exitDy=0;exitPerimeter=0;" parent="1" source="6XwkBDn64M--cPHVfE2t-6" edge="1">
          <mxGeometry width="50" height="50" relative="1" as="geometry">
            <mxPoint x="270" y="305" as="sourcePoint" />
            <mxPoint x="320" y="255" as="targetPoint" />
          </mxGeometry>
        </mxCell>
        <mxCell id="6XwkBDn64M--cPHVfE2t-21" value="BLT" style="swimlane;whiteSpace=wrap;html=1;" parent="1" vertex="1">
          <mxGeometry x="20" y="130" width="540" height="380" as="geometry" />
        </mxCell>
        <mxCell id="6XwkBDn64M--cPHVfE2t-22" value="" style="endArrow=classic;html=1;rounded=0;entryX=-0.013;entryY=0.333;entryDx=0;entryDy=0;entryPerimeter=0;" parent="1" target="6XwkBDn64M--cPHVfE2t-17" edge="1">
          <mxGeometry width="50" height="50" relative="1" as="geometry">
            <mxPoint x="530" y="220" as="sourcePoint" />
            <mxPoint x="580" y="175" as="targetPoint" />
          </mxGeometry>
        </mxCell>
        <mxCell id="6XwkBDn64M--cPHVfE2t-23" value="" style="endArrow=classic;html=1;rounded=0;exitX=-0.007;exitY=0.56;exitDx=0;exitDy=0;exitPerimeter=0;" parent="1" source="6XwkBDn64M--cPHVfE2t-17" edge="1">
          <mxGeometry width="50" height="50" relative="1" as="geometry">
            <mxPoint x="670" y="250" as="sourcePoint" />
            <mxPoint x="530" y="252" as="targetPoint" />
          </mxGeometry>
        </mxCell>
        <mxCell id="6XwkBDn64M--cPHVfE2t-24" value="Rest API" style="text;html=1;align=center;verticalAlign=middle;whiteSpace=wrap;rounded=0;" parent="1" vertex="1">
          <mxGeometry x="570" y="225" width="60" height="30" as="geometry" />
        </mxCell>
      </root>
    </mxGraphModel>
  </diagram>
</mxfile>
